<?xml version="1.0" encoding="UTF-8"?>
<!-- Generated by Pixelmator Pro 3.2.3 -->
<svg width="371" height="370" viewBox="0 0 371 370" xmlns="http://www.w3.org/2000/svg" xmlns:xlink="http://www.w3.org/1999/xlink">
    <g id="Group-copy">
        <g id="ZIG360Chart-copy-33">
            <g id="Chart-polygons">
                <path id="Polygon" fill="#103ee3" fill-rule="evenodd" stroke="#0b0b6d" stroke-linecap="round" stroke-linejoin="round" d="M 204 12.392303 L 327.348663 83.607697 C 338.487122 90.038483 345.348663 101.923035 345.348663 114.784607 L 345.348663 257.215393 C 345.348663 270.076965 338.487122 281.961517 327.348663 288.392303 L 204 359.607697 C 192.861557 366.038483 179.138443 366.038483 168 359.607697 L 44.651325 288.392303 C 33.512886 281.961517 26.651325 270.076965 26.651325 257.215393 L 26.651325 114.784607 C 26.651325 101.923035 33.512886 90.038483 44.651325 83.607697 L 168 12.392303 C 179.138443 5.961517 192.861557 5.961517 204 12.392303 Z"/>
                <path id="Path" fill="#0678f3" fill-rule="evenodd" stroke="#02d7ea" stroke-linecap="round" stroke-linejoin="round" d="M 203.5 54.392303 L 290.042603 104.357697 C 301.18103 110.788483 308.042603 122.67305 308.042603 135.534607 L 308.042603 235.465393 C 308.042603 248.32695 301.18103 260.211517 290.042603 266.642303 L 203.5 316.607697 C 192.361557 323.038483 178.638443 323.038483 167.5 316.607697 L 80.957405 266.642303 C 69.81897 260.211517 62.957405 248.32695 62.957405 235.465393 L 62.957405 135.534607 C 62.957405 122.67305 69.81897 110.788483 80.957405 104.357697 L 167.5 54.392303 C 178.638443 47.961517 192.361557 47.961517 203.5 54.392303 Z"/>
                <path id="path1" fill="#02d7ea" fill-rule="evenodd" stroke="#02ffd5" stroke-linecap="round" stroke-linejoin="round" d="M 204.5 98.392303 L 252.937469 126.357697 C 264.075928 132.788483 270.937469 144.67305 270.937469 157.534607 L 270.937469 213.465393 C 270.937469 226.32695 264.075928 238.211517 252.937469 244.642303 L 204.5 272.607697 C 193.361557 279.038483 179.638443 279.038483 168.5 272.607697 L 120.062523 244.642303 C 108.924088 238.211517 102.062523 226.32695 102.062523 213.465393 L 102.062523 157.534607 C 102.062523 144.67305 108.924088 132.788483 120.062523 126.357697 L 168.5 98.392303 C 179.638443 91.961517 193.361557 91.961517 204.5 98.392303 Z"/>
                <path id="path2" fill="#02ffd5" fill-rule="evenodd" stroke="#ffffff" stroke-linecap="round" stroke-linejoin="round" d="M 196.999542 136.638916 L 221.499496 150.783218 C 229.234802 155.248962 234 163.502289 234 172.434143 L 234 199.565857 C 234 208.497711 229.234802 216.751038 221.499496 221.216782 L 197.999496 234.783798 C 190.264725 239.249222 180.735275 239.249222 173.000504 234.783798 L 149.500504 221.216782 C 141.765198 216.751038 137 208.497711 137 199.565857 L 137 172.434143 C 137 163.502289 141.765198 155.248962 149.500504 150.783218 L 174.000458 136.638916 C 181.116455 132.530716 189.883545 132.530716 196.999542 136.638916 Z"/>
            </g>
            <g id="chartLines">
                <path id="Line" fill="#ffffff" fill-rule="evenodd" stroke="#121284" stroke-width="2" stroke-linecap="round" stroke-linejoin="round" d="M 185.5 8.504822 L 185.5 364"/>
                <path id="path3" fill="none" stroke="#121284" stroke-width="2" stroke-linecap="round" stroke-linejoin="round" d="M 31 99.5 L 340 273"/>
                <path id="path4" fill="#ffffff" fill-rule="evenodd" stroke="#121284" stroke-width="2" stroke-linecap="round" stroke-linejoin="round" d="M 31 273 L 340 99.5"/>
            </g>
            <g id="Legends">
                <text id="Saboteur" transform="matrix(0.866025 0.5 -0.5 0.866025 57.463849 -135.458003)" xml:space="preserve" x="320" y="47" text-anchor="end" font-family="Arial" font-size="18" font-weight="300" fill="#646464">Saboteur</text>
                <text id="Friend" transform="matrix(0.866025 0.5 -0.5 0.866025 182.915409 -5.649599)" xml:space="preserve" x="129" y="346" text-anchor="end" font-family="Arial" font-size="18" font-weight="300" fill="#646464">Friend</text>
                <text id="2nd-Influencer" transform="matrix(-0 -1 1 -0 -165 186)" xml:space="preserve" x="70" y="183" text-anchor="end" font-family="Arial" font-size="18" font-weight="300" fill="#646464">2nd Influencer</text>
                <text id="Key-Influencer" transform="matrix(0.865796 -0.500397 0.500397 0.865796 -3.477109 54.035144)" xml:space="preserve" x="159" y="41" text-anchor="end" font-family="Arial" font-size="18" font-weight="300" fill="#646464">Key Influencer</text>
                <text id="Colleague" transform="matrix(0.866025 -0.5 0.5 0.866025 -127.536151 185.028604)" xml:space="preserve" x="324" y="338" text-anchor="end" font-family="Arial" font-size="18" font-weight="300" fill="#646464">Colleague</text>
                <text id="Target" transform="matrix(-0 -1 1 -0 176 545)" xml:space="preserve" x="388" y="192" text-anchor="end" font-family="Arial" font-size="18" font-weight="300" fill="#646464">Target</text>
            </g>
        </g>
        <g id="ZIG360Chart-copy-32">
            <g id="g1">
                <path id="path5" fill="#000a2e" fill-opacity="0.647057" fill-rule="evenodd" stroke="none" d="M 185.126953 363.564453 C 178.911606 363.586395 172.689911 362.00235 167.109375 358.806641 L 43.509766 288.027344 C 32.348694 281.635925 25.445797 269.775543 25.400391 256.914063 L 24.898438 114.484375 C 24.853033 101.622894 31.671446 89.71225 42.787109 83.242188 L 165.884766 11.591797 C 177.000427 5.121735 190.723709 5.073425 201.884766 11.464844 L 325.482422 82.244141 C 336.643524 88.635559 343.54834 100.495941 343.59375 113.357422 L 344.095703 255.787109 C 344.121796 263.173248 341.882721 270.246246 337.867188 276.154297 C 338.325653 275.332458 338.525391 274.826172 338.525391 274.826172 L 184.496094 185.136719 L 186.416016 363.363281 C 186.416016 363.363281 187.187393 363.424225 188.460938 363.398438 C 187.352448 363.505371 186.239517 363.560516 185.126953 363.564453 Z M 324.289063 288.146484 C 326.550293 286.701111 328.549011 285.401733 330.166016 284.320313 C 330.290283 284.237183 330.410248 284.152283 330.53125 284.068359 C 329.174438 285.149353 327.732239 286.14151 326.207031 287.029297 L 324.289063 288.146484 Z"/>
            </g>
            <g id="g2"/>
        </g>
        <path id="Rectangle-copy-6" fill="#2eb5ed" fill-rule="evenodd" stroke="none" d="M 339.496094 275.572144 C 339.496094 275.572144 333.189697 283.850525 330.563721 285.612152 C 327.01416 287.993317 197.561768 361.246185 197.561768 361.246185 L 186 364 L 186.233276 321.031097 C 186.233276 321.031097 193.078369 320.577209 194.650269 320.203186 C 201.842285 318.491974 268.461182 279.155792 292.145142 265.069214 C 297.505981 261.880707 303 254 303 254 L 339.496094 275.572144 Z"/>
        <text id="C" xml:space="preserve" x="266" y="314" text-anchor="end" font-family="Arial" font-size="24" font-weight="700" fill="#ffffff">C</text>
    </g>
</svg>
