<?xml version="1.0" encoding="UTF-8"?>
<!-- Generated by Pixelmator Pro 3.2.3 -->
<svg width="371" height="370" viewBox="0 0 371 370" xmlns="http://www.w3.org/2000/svg" xmlns:xlink="http://www.w3.org/1999/xlink">
    <g id="Group-copy">
        <g id="ZIG360Chart-copy-31">
            <g id="Chart-polygons">
                <path id="Polygon" fill="#103ee3" fill-rule="evenodd" stroke="#0b0b6d" stroke-linecap="round" stroke-linejoin="round" d="M 204 11.392303 L 327.348663 82.607697 C 338.487122 89.038483 345.348663 100.923035 345.348663 113.784607 L 345.348663 256.215393 C 345.348663 269.076965 338.487122 280.961517 327.348663 287.392303 L 204 358.607697 C 192.861557 365.038483 179.138443 365.038483 168 358.607697 L 44.651325 287.392303 C 33.512886 280.961517 26.651325 269.076965 26.651325 256.215393 L 26.651325 113.784607 C 26.651325 100.923035 33.512886 89.038483 44.651325 82.607697 L 168 11.392303 C 179.138443 4.961517 192.861557 4.961517 204 11.392303 Z"/>
                <path id="Path" fill="#0678f3" fill-rule="evenodd" stroke="#02d7ea" stroke-linecap="round" stroke-linejoin="round" d="M 203.5 53.392303 L 290.042603 103.357697 C 301.18103 109.788483 308.042603 121.67305 308.042603 134.534607 L 308.042603 234.465393 C 308.042603 247.32695 301.18103 259.211517 290.042603 265.642303 L 203.5 315.607697 C 192.361557 322.038483 178.638443 322.038483 167.5 315.607697 L 80.957405 265.642303 C 69.81897 259.211517 62.957405 247.32695 62.957405 234.465393 L 62.957405 134.534607 C 62.957405 121.67305 69.81897 109.788483 80.957405 103.357697 L 167.5 53.392303 C 178.638443 46.961517 192.361557 46.961517 203.5 53.392303 Z"/>
                <path id="path1" fill="#02d7ea" fill-rule="evenodd" stroke="#02ffd5" stroke-linecap="round" stroke-linejoin="round" d="M 204.5 97.392303 L 252.937469 125.357697 C 264.075928 131.788483 270.937469 143.67305 270.937469 156.534607 L 270.937469 212.465393 C 270.937469 225.32695 264.075928 237.211517 252.937469 243.642303 L 204.5 271.607697 C 193.361557 278.038483 179.638443 278.038483 168.5 271.607697 L 120.062523 243.642303 C 108.924088 237.211517 102.062523 225.32695 102.062523 212.465393 L 102.062523 156.534607 C 102.062523 143.67305 108.924088 131.788483 120.062523 125.357697 L 168.5 97.392303 C 179.638443 90.961517 193.361557 90.961517 204.5 97.392303 Z"/>
                <path id="path2" fill="#02ffd5" fill-rule="evenodd" stroke="#ffffff" stroke-linecap="round" stroke-linejoin="round" d="M 196.999542 135.638916 L 221.499496 149.783218 C 229.234802 154.248962 234 162.502289 234 171.434143 L 234 198.565857 C 234 207.497711 229.234802 215.751038 221.499496 220.216782 L 197.999496 233.783798 C 190.264725 238.249222 180.735275 238.249222 173.000504 233.783798 L 149.500504 220.216782 C 141.765198 215.751038 137 207.497711 137 198.565857 L 137 171.434143 C 137 162.502289 141.765198 154.248962 149.500504 149.783218 L 174.000458 135.638916 C 181.116455 131.530716 189.883545 131.530716 196.999542 135.638916 Z"/>
            </g>
            <g id="chartLines">
                <path id="Line" fill="#ffffff" fill-rule="evenodd" stroke="#121284" stroke-width="2" stroke-linecap="round" stroke-linejoin="round" d="M 185.5 7.504822 L 185.5 363"/>
                <path id="path3" fill="none" stroke="#121284" stroke-width="2" stroke-linecap="round" stroke-linejoin="round" d="M 31 98.5 L 340 272"/>
                <path id="path4" fill="#ffffff" fill-rule="evenodd" stroke="#121284" stroke-width="2" stroke-linecap="round" stroke-linejoin="round" d="M 31 272 L 340 98.5"/>
            </g>
            <g id="Legends">
                <text id="Saboteur" transform="matrix(0.866025 0.5 -0.5 0.866025 56.963849 -135.591978)" xml:space="preserve" x="320" y="46" text-anchor="end" font-family="Arial" font-size="18" font-weight="300" fill="#646464">Saboteur</text>
                <text id="Friend" transform="matrix(0.866025 0.5 -0.5 0.866025 182.415409 -5.783574)" xml:space="preserve" x="129" y="345" text-anchor="end" font-family="Arial" font-size="18" font-weight="300" fill="#646464">Friend</text>
                <text id="2nd-Influencer" transform="matrix(-0 -1 1 -0 -164 185)" xml:space="preserve" x="70" y="182" text-anchor="end" font-family="Arial" font-size="18" font-weight="300" fill="#646464">2nd Influencer</text>
                <text id="Key-Influencer" transform="matrix(0.865796 -0.500397 0.500397 0.865796 -2.976712 53.90094)" xml:space="preserve" x="159" y="40" text-anchor="end" font-family="Arial" font-size="18" font-weight="300" fill="#646464">Key Influencer</text>
                <text id="Colleague" transform="matrix(0.866025 -0.5 0.5 0.866025 -127.036151 184.894629)" xml:space="preserve" x="324" y="337" text-anchor="end" font-family="Arial" font-size="18" font-weight="300" fill="#646464">Colleague</text>
                <text id="Target" transform="matrix(-0 -1 1 -0 177 544)" xml:space="preserve" x="388" y="191" text-anchor="end" font-family="Arial" font-size="18" font-weight="300" fill="#646464">Target</text>
            </g>
        </g>
        <g id="ZIG360Chart-copy-30">
            <g id="g1">
                <path id="path5" fill="#000a2e" fill-opacity="0.647057" fill-rule="evenodd" stroke="none" d="M 185.126953 363.564453 C 178.911606 363.586395 172.689911 362.00235 167.109375 358.806641 L 43.509766 288.027344 C 32.348694 281.635925 25.445797 269.775543 25.400391 256.914063 L 24.898438 114.484375 C 24.853033 101.622894 31.671446 89.71225 42.787109 83.242188 L 165.884766 11.591797 C 177.000427 5.121735 190.723709 5.073425 201.884766 11.464844 L 325.482422 82.244141 C 336.643524 88.635559 343.54834 100.495941 343.59375 113.357422 L 344.095703 255.787109 C 344.121796 263.173248 341.882721 270.246246 337.867188 276.154297 C 338.325653 275.332458 338.525391 274.826172 338.525391 274.826172 L 184.496094 185.136719 L 186.416016 363.363281 C 186.416016 363.363281 187.187393 363.424225 188.460938 363.398438 C 187.352448 363.505371 186.239517 363.560516 185.126953 363.564453 Z M 324.289063 288.146484 C 326.550293 286.701111 328.549011 285.401733 330.166016 284.320313 C 330.290283 284.237183 330.410248 284.152283 330.53125 284.068359 C 329.174438 285.149353 327.732239 286.14151 326.207031 287.029297 L 324.289063 288.146484 Z"/>
            </g>
            <g id="g2"/>
        </g>
        <path id="Rectangle-copy-5" fill="#f9e231" fill-rule="evenodd" stroke="none" d="M 302.822723 253.137817 C 302.822723 253.137817 295.710693 261.553406 292.443268 263.49469 C 263.173645 280.885071 209.006439 311.431244 198.046524 317.99469 C 194.966431 319.839203 187.386246 319.530579 187.386246 319.530579 L 186.24646 277.053833 C 186.24646 277.053833 189.948929 278.083954 196.174667 275.857666 C 206.944107 272.006592 248.221436 247.647781 259.217621 240.664093 C 261.734344 239.06575 266.449646 232.137817 266.449646 232.137817 L 302.822723 253.137817 Z"/>
        <text id="S" xml:space="preserve" x="247" y="280" text-anchor="end" font-family="Arial" font-size="22" font-weight="700" fill="#ffffff">S</text>
    </g>
</svg>
