<?xml version="1.0" encoding="UTF-8"?>
<!-- Generated by Pixelmator Pro 3.2.3 -->
<svg width="370" height="370" viewBox="0 0 370 370" xmlns="http://www.w3.org/2000/svg" xmlns:xlink="http://www.w3.org/1999/xlink">
    <g id="Group-copy">
        <g id="ZIG360Chart-copy-27">
            <g id="Chart-polygons">
                <path id="Polygon" fill="#103ee3" fill-rule="evenodd" stroke="#0b0b6d" stroke-linecap="round" stroke-linejoin="round" d="M 202 12.392303 L 325.348663 83.607697 C 336.487122 90.038483 343.348663 101.923035 343.348663 114.784607 L 343.348663 257.215393 C 343.348663 270.076965 336.487122 281.961517 325.348663 288.392303 L 202 359.607697 C 190.861557 366.038483 177.138443 366.038483 166 359.607697 L 42.651325 288.392303 C 31.512886 281.961517 24.651325 270.076965 24.651325 257.215393 L 24.651325 114.784607 C 24.651325 101.923035 31.512886 90.038483 42.651325 83.607697 L 166 12.392303 C 177.138443 5.961517 190.861557 5.961517 202 12.392303 Z"/>
                <path id="Path" fill="#0678f3" fill-rule="evenodd" stroke="#02d7ea" stroke-linecap="round" stroke-linejoin="round" d="M 201.5 54.392303 L 288.042603 104.357697 C 299.18103 110.788483 306.042603 122.67305 306.042603 135.534607 L 306.042603 235.465393 C 306.042603 248.32695 299.18103 260.211517 288.042603 266.642303 L 201.5 316.607697 C 190.361557 323.038483 176.638443 323.038483 165.5 316.607697 L 78.957405 266.642303 C 67.81897 260.211517 60.957405 248.32695 60.957405 235.465393 L 60.957405 135.534607 C 60.957405 122.67305 67.81897 110.788483 78.957405 104.357697 L 165.5 54.392303 C 176.638443 47.961517 190.361557 47.961517 201.5 54.392303 Z"/>
                <path id="path1" fill="#02d7ea" fill-rule="evenodd" stroke="#02ffd5" stroke-linecap="round" stroke-linejoin="round" d="M 202.5 98.392303 L 250.937469 126.357697 C 262.075928 132.788483 268.937469 144.67305 268.937469 157.534607 L 268.937469 213.465393 C 268.937469 226.32695 262.075928 238.211517 250.937469 244.642303 L 202.5 272.607697 C 191.361557 279.038483 177.638443 279.038483 166.5 272.607697 L 118.062523 244.642303 C 106.924088 238.211517 100.062523 226.32695 100.062523 213.465393 L 100.062523 157.534607 C 100.062523 144.67305 106.924088 132.788483 118.062523 126.357697 L 166.5 98.392303 C 177.638443 91.961517 191.361557 91.961517 202.5 98.392303 Z"/>
                <path id="path2" fill="#02ffd5" fill-rule="evenodd" stroke="#ffffff" stroke-linecap="round" stroke-linejoin="round" d="M 194.999542 136.638916 L 219.499496 150.783218 C 227.234802 155.248962 232 163.502289 232 172.434143 L 232 199.565857 C 232 208.497711 227.234802 216.751038 219.499496 221.216782 L 195.999496 234.783798 C 188.264725 239.249222 178.735275 239.249222 171.000504 234.783798 L 147.500504 221.216782 C 139.765198 216.751038 135 208.497711 135 199.565857 L 135 172.434143 C 135 163.502289 139.765198 155.248962 147.500504 150.783218 L 172.000458 136.638916 C 179.116455 132.530716 187.883545 132.530716 194.999542 136.638916 Z"/>
            </g>
            <g id="chartLines">
                <path id="Line" fill="#ffffff" fill-rule="evenodd" stroke="#121284" stroke-width="2" stroke-linecap="round" stroke-linejoin="round" d="M 183.5 8.504822 L 183.5 364"/>
                <path id="path3" fill="none" stroke="#121284" stroke-width="2" stroke-linecap="round" stroke-linejoin="round" d="M 29 99.5 L 338 273"/>
                <path id="path4" fill="#ffffff" fill-rule="evenodd" stroke="#121284" stroke-width="2" stroke-linecap="round" stroke-linejoin="round" d="M 29 273 L 338 99.5"/>
            </g>
            <g id="Legends">
                <text id="Saboteur" transform="matrix(0.866025 0.5 -0.5 0.866025 57.1959 -134.458003)" xml:space="preserve" x="318" y="47" text-anchor="end" font-family="Arial" font-size="18" font-weight="300" fill="#646464">Saboteur</text>
                <text id="Friend" transform="matrix(0.866025 0.5 -0.5 0.866025 182.64746 -4.649599)" xml:space="preserve" x="127" y="346" text-anchor="end" font-family="Arial" font-size="18" font-weight="300" fill="#646464">Friend</text>
                <text id="2nd-Influencer" transform="matrix(-0 -1 1 -0 -167 184)" xml:space="preserve" x="68" y="183" text-anchor="end" font-family="Arial" font-size="18" font-weight="300" fill="#646464">2nd Influencer</text>
                <text id="Key-Influencer" transform="matrix(0.865796 -0.500397 0.500397 0.865796 -3.745517 53.034349)" xml:space="preserve" x="157" y="41" text-anchor="end" font-family="Arial" font-size="18" font-weight="300" fill="#646464">Key Influencer</text>
                <text id="Colleague" transform="matrix(0.866025 -0.5 0.5 0.866025 -127.8041 184.028604)" xml:space="preserve" x="322" y="338" text-anchor="end" font-family="Arial" font-size="18" font-weight="300" fill="#646464">Colleague</text>
                <text id="Target" transform="matrix(-0 -1 1 -0 174 543)" xml:space="preserve" x="386" y="192" text-anchor="end" font-family="Arial" font-size="18" font-weight="300" fill="#646464">Target</text>
            </g>
        </g>
        <g id="ZIG360Chart-copy-26">
            <g id="g1">
                <path id="path5" fill="#000a2e" fill-opacity="0.647057" fill-rule="evenodd" stroke="none" d="M 185.798828 363.550781 C 184.878479 363.545654 183.959122 363.503387 183.041016 363.427734 C 184.318024 363.43576 185.089844 363.367188 185.089844 363.367188 L 184.490234 185.128906 L 31.746094 276.986328 C 31.746094 276.986328 31.950701 277.485352 32.414063 278.291016 C 28.320875 272.442749 25.984482 265.409821 25.90625 258.029297 L 24.396484 115.605469 C 24.260155 102.744629 30.994808 90.788727 42.064453 84.240234 L 164.652344 11.720703 C 175.721985 5.172241 189.444412 5.027466 200.650391 11.339844 L 324.746094 81.244141 C 335.952087 87.556488 342.93985 99.367676 343.076172 112.228516 L 344.585938 254.650391 C 344.72226 267.51123 337.985657 279.469116 326.916016 286.017578 L 204.330078 358.535156 C 198.622299 361.911713 192.208527 363.586456 185.798828 363.550781 Z M 46.152344 290.09375 L 44.236328 289.013672 C 42.696754 288.146423 41.236763 287.174622 39.863281 286.111328 C 39.987431 286.194885 40.110756 286.278625 40.238281 286.361328 C 41.866806 287.41748 43.877232 288.684296 46.152344 290.09375 Z"/>
            </g>
            <g id="g2"/>
        </g>
        <path id="Rectangle-copy-17" fill="#2eb5ed" fill-rule="evenodd" stroke="none" d="M 183.099365 363.827881 C 183.099365 363.827881 172.776855 362.505554 169.938232 361.112183 C 166.101318 359.22876 37.936279 283.746155 37.936279 283.746155 L 30.099365 272.827881 L 67.099365 253.827881 C 67.099365 253.827881 70.915039 259.52887 72.024902 260.703186 C 77.102783 266.076111 144.478516 304.101685 168.519775 317.569214 C 173.961426 320.617615 183 322 183 322 L 183.099365 363.827881 Z"/>
        <text id="C" xml:space="preserve" x="120" y="316" text-anchor="end" font-family="Arial" font-size="24" font-weight="700" fill="#ffffff">C</text>
    </g>
</svg>
