<?xml version="1.0" encoding="UTF-8"?>
<!-- Generated by Pixelmator Pro 3.2.3 -->
<svg width="370" height="369" viewBox="0 0 370 369" xmlns="http://www.w3.org/2000/svg" xmlns:xlink="http://www.w3.org/1999/xlink">
    <g id="Group-copy">
        <g id="ZIG360Chart-copy-25">
            <g id="Chart-polygons">
                <path id="Polygon" fill="#103ee3" fill-rule="evenodd" stroke="#0b0b6d" stroke-linecap="round" stroke-linejoin="round" d="M 203 11.392303 L 326.348663 82.607697 C 337.487122 89.038483 344.348663 100.923035 344.348663 113.784607 L 344.348663 256.215393 C 344.348663 269.076965 337.487122 280.961517 326.348663 287.392303 L 203 358.607697 C 191.861557 365.038483 178.138443 365.038483 167 358.607697 L 43.651325 287.392303 C 32.512886 280.961517 25.651325 269.076965 25.651325 256.215393 L 25.651325 113.784607 C 25.651325 100.923035 32.512886 89.038483 43.651325 82.607697 L 167 11.392303 C 178.138443 4.961517 191.861557 4.961517 203 11.392303 Z"/>
                <path id="Path" fill="#0678f3" fill-rule="evenodd" stroke="#02d7ea" stroke-linecap="round" stroke-linejoin="round" d="M 202.5 53.392303 L 289.042603 103.357697 C 300.18103 109.788483 307.042603 121.67305 307.042603 134.534607 L 307.042603 234.465393 C 307.042603 247.32695 300.18103 259.211517 289.042603 265.642303 L 202.5 315.607697 C 191.361557 322.038483 177.638443 322.038483 166.5 315.607697 L 79.957405 265.642303 C 68.81897 259.211517 61.957405 247.32695 61.957405 234.465393 L 61.957405 134.534607 C 61.957405 121.67305 68.81897 109.788483 79.957405 103.357697 L 166.5 53.392303 C 177.638443 46.961517 191.361557 46.961517 202.5 53.392303 Z"/>
                <path id="path1" fill="#02d7ea" fill-rule="evenodd" stroke="#02ffd5" stroke-linecap="round" stroke-linejoin="round" d="M 203.5 97.392303 L 251.937469 125.357697 C 263.075928 131.788483 269.937469 143.67305 269.937469 156.534607 L 269.937469 212.465393 C 269.937469 225.32695 263.075928 237.211517 251.937469 243.642303 L 203.5 271.607697 C 192.361557 278.038483 178.638443 278.038483 167.5 271.607697 L 119.062523 243.642303 C 107.924088 237.211517 101.062523 225.32695 101.062523 212.465393 L 101.062523 156.534607 C 101.062523 143.67305 107.924088 131.788483 119.062523 125.357697 L 167.5 97.392303 C 178.638443 90.961517 192.361557 90.961517 203.5 97.392303 Z"/>
                <path id="path2" fill="#02ffd5" fill-rule="evenodd" stroke="#ffffff" stroke-linecap="round" stroke-linejoin="round" d="M 195.999542 135.638916 L 220.499496 149.783218 C 228.234802 154.248962 233 162.502289 233 171.434143 L 233 198.565857 C 233 207.497711 228.234802 215.751038 220.499496 220.216782 L 196.999496 233.783798 C 189.264725 238.249222 179.735275 238.249222 172.000504 233.783798 L 148.500504 220.216782 C 140.765198 215.751038 136 207.497711 136 198.565857 L 136 171.434143 C 136 162.502289 140.765198 154.248962 148.500504 149.783218 L 173.000458 135.638916 C 180.116455 131.530716 188.883545 131.530716 195.999542 135.638916 Z"/>
            </g>
            <g id="chartLines">
                <path id="Line" fill="#ffffff" fill-rule="evenodd" stroke="#121284" stroke-width="2" stroke-linecap="round" stroke-linejoin="round" d="M 184.5 7.504822 L 184.5 363"/>
                <path id="path3" fill="none" stroke="#121284" stroke-width="2" stroke-linecap="round" stroke-linejoin="round" d="M 30 98.5 L 339 272"/>
                <path id="path4" fill="#ffffff" fill-rule="evenodd" stroke="#121284" stroke-width="2" stroke-linecap="round" stroke-linejoin="round" d="M 30 272 L 339 98.5"/>
            </g>
            <g id="Legends">
                <text id="Saboteur" transform="matrix(0.866025 0.5 -0.5 0.866025 56.829874 -135.091978)" xml:space="preserve" x="319" y="46" text-anchor="end" font-family="Arial" font-size="18" font-weight="300" fill="#646464">Saboteur</text>
                <text id="Friend" transform="matrix(0.866025 0.5 -0.5 0.866025 182.281434 -5.283574)" xml:space="preserve" x="128" y="345" text-anchor="end" font-family="Arial" font-size="18" font-weight="300" fill="#646464">Friend</text>
                <text id="2nd-Influencer" transform="matrix(-0 -1 1 -0 -165 184)" xml:space="preserve" x="69" y="182" text-anchor="end" font-family="Arial" font-size="18" font-weight="300" fill="#646464">2nd Influencer</text>
                <text id="Key-Influencer" transform="matrix(0.865796 -0.500397 0.500397 0.865796 -3.110916 53.400543)" xml:space="preserve" x="158" y="40" text-anchor="end" font-family="Arial" font-size="18" font-weight="300" fill="#646464">Key Influencer</text>
                <text id="Colleague" transform="matrix(0.866025 -0.5 0.5 0.866025 -127.170126 184.394629)" xml:space="preserve" x="323" y="337" text-anchor="end" font-family="Arial" font-size="18" font-weight="300" fill="#646464">Colleague</text>
                <text id="Target" transform="matrix(-0 -1 1 -0 176 543)" xml:space="preserve" x="387" y="191" text-anchor="end" font-family="Arial" font-size="18" font-weight="300" fill="#646464">Target</text>
            </g>
        </g>
        <g id="ZIG360Chart-copy-24">
            <g id="g1">
                <path id="path5" fill="#000a2e" fill-opacity="0.647057" fill-rule="evenodd" stroke="none" d="M 185.798828 362.550781 C 184.878479 362.545654 183.959122 362.503387 183.041016 362.427734 C 184.318024 362.43576 185.089844 362.367188 185.089844 362.367188 L 184.490234 184.128906 L 31.746094 275.986328 C 31.746094 275.986328 31.950701 276.485352 32.414063 277.291016 C 28.320875 271.442749 25.984482 264.409821 25.90625 257.029297 L 24.396484 114.605469 C 24.260155 101.744629 30.994808 89.788727 42.064453 83.240234 L 164.652344 10.720703 C 175.721985 4.172241 189.444412 4.027466 200.650391 10.339844 L 324.746094 80.244141 C 335.952087 86.556488 342.93985 98.367676 343.076172 111.228516 L 344.585938 253.650391 C 344.72226 266.51123 337.985657 278.469116 326.916016 285.017578 L 204.330078 357.535156 C 198.622299 360.911713 192.208527 362.586456 185.798828 362.550781 Z M 46.152344 289.09375 L 44.236328 288.013672 C 42.696754 287.146423 41.236763 286.174622 39.863281 285.111328 C 39.987431 285.194885 40.110756 285.278625 40.238281 285.361328 C 41.866806 286.41748 43.877232 287.684296 46.152344 289.09375 Z"/>
            </g>
            <g id="g2"/>
        </g>
        <path id="Rectangle-copy-15" fill="#f9e231" fill-rule="evenodd" stroke="none" d="M 184 319 C 184 319 174.314941 318.859009 171 317 C 141.304688 300.346924 87.164063 268.209839 76 262 C 72.862549 260.254822 69 253 69 253 L 106.246582 230.573059 C 106.246582 230.573059 107.205566 234.294556 112.246582 238.573059 C 120.966309 245.974121 174.246582 275.573059 174.246582 275.573059 C 174.246582 275.573059 184 277 184 277 L 184 319 Z"/>
        <text id="S" xml:space="preserve" x="138" y="280" text-anchor="end" font-family="Arial" font-size="22" font-weight="700" fill="#ffffff">S</text>
    </g>
</svg>
