<?xml version="1.0" encoding="UTF-8"?>
<!-- Generated by Pixelmator Pro 3.2.3 -->
<svg width="371" height="370" viewBox="0 0 371 370" xmlns="http://www.w3.org/2000/svg" xmlns:xlink="http://www.w3.org/1999/xlink">
    <g id="Group-copy">
        <g id="ZIG360Chart-copy-39">
            <g id="Chart-polygons">
                <path id="Polygon" fill="#103ee3" fill-rule="evenodd" stroke="#0b0b6d" stroke-linecap="round" stroke-linejoin="round" d="M 203 12.392303 L 326.348663 83.607697 C 337.487122 90.038483 344.348663 101.923035 344.348663 114.784607 L 344.348663 257.215393 C 344.348663 270.076965 337.487122 281.961517 326.348663 288.392303 L 203 359.607697 C 191.861557 366.038483 178.138443 366.038483 167 359.607697 L 43.651325 288.392303 C 32.512886 281.961517 25.651325 270.076965 25.651325 257.215393 L 25.651325 114.784607 C 25.651325 101.923035 32.512886 90.038483 43.651325 83.607697 L 167 12.392303 C 178.138443 5.961517 191.861557 5.961517 203 12.392303 Z"/>
                <path id="Path" fill="#0678f3" fill-rule="evenodd" stroke="#02d7ea" stroke-linecap="round" stroke-linejoin="round" d="M 202.5 54.392303 L 289.042603 104.357697 C 300.18103 110.788483 307.042603 122.67305 307.042603 135.534607 L 307.042603 235.465393 C 307.042603 248.32695 300.18103 260.211517 289.042603 266.642303 L 202.5 316.607697 C 191.361557 323.038483 177.638443 323.038483 166.5 316.607697 L 79.957405 266.642303 C 68.81897 260.211517 61.957405 248.32695 61.957405 235.465393 L 61.957405 135.534607 C 61.957405 122.67305 68.81897 110.788483 79.957405 104.357697 L 166.5 54.392303 C 177.638443 47.961517 191.361557 47.961517 202.5 54.392303 Z"/>
                <path id="path1" fill="#02d7ea" fill-rule="evenodd" stroke="#02ffd5" stroke-linecap="round" stroke-linejoin="round" d="M 203.5 98.392303 L 251.937469 126.357697 C 263.075928 132.788483 269.937469 144.67305 269.937469 157.534607 L 269.937469 213.465393 C 269.937469 226.32695 263.075928 238.211517 251.937469 244.642303 L 203.5 272.607697 C 192.361557 279.038483 178.638443 279.038483 167.5 272.607697 L 119.062523 244.642303 C 107.924088 238.211517 101.062523 226.32695 101.062523 213.465393 L 101.062523 157.534607 C 101.062523 144.67305 107.924088 132.788483 119.062523 126.357697 L 167.5 98.392303 C 178.638443 91.961517 192.361557 91.961517 203.5 98.392303 Z"/>
                <path id="path2" fill="#02ffd5" fill-rule="evenodd" stroke="#ffffff" stroke-linecap="round" stroke-linejoin="round" d="M 195.999542 136.638916 L 220.499496 150.783218 C 228.234802 155.248962 233 163.502289 233 172.434143 L 233 199.565857 C 233 208.497711 228.234802 216.751038 220.499496 221.216782 L 196.999496 234.783798 C 189.264725 239.249222 179.735275 239.249222 172.000504 234.783798 L 148.500504 221.216782 C 140.765198 216.751038 136 208.497711 136 199.565857 L 136 172.434143 C 136 163.502289 140.765198 155.248962 148.500504 150.783218 L 173.000458 136.638916 C 180.116455 132.530716 188.883545 132.530716 195.999542 136.638916 Z"/>
            </g>
            <g id="chartLines">
                <path id="Line" fill="#ffffff" fill-rule="evenodd" stroke="#121284" stroke-width="2" stroke-linecap="round" stroke-linejoin="round" d="M 184.5 8.504822 L 184.5 364"/>
                <path id="path3" fill="none" stroke="#121284" stroke-width="2" stroke-linecap="round" stroke-linejoin="round" d="M 30 99.5 L 339 273"/>
                <path id="path4" fill="#ffffff" fill-rule="evenodd" stroke="#121284" stroke-width="2" stroke-linecap="round" stroke-linejoin="round" d="M 30 273 L 339 99.5"/>
            </g>
            <g id="Legends">
                <text id="Saboteur" transform="matrix(0.866025 0.5 -0.5 0.866025 57.329874 -134.958003)" xml:space="preserve" x="319" y="47" text-anchor="end" font-family="Arial" font-size="18" font-weight="300" fill="#646464">Saboteur</text>
                <text id="Friend" transform="matrix(0.866025 0.5 -0.5 0.866025 182.781434 -5.149599)" xml:space="preserve" x="128" y="346" text-anchor="end" font-family="Arial" font-size="18" font-weight="300" fill="#646464">Friend</text>
                <text id="2nd-Influencer" transform="matrix(-0 -1 1 -0 -166 185)" xml:space="preserve" x="69" y="183" text-anchor="end" font-family="Arial" font-size="18" font-weight="300" fill="#646464">2nd Influencer</text>
                <text id="Key-Influencer" transform="matrix(0.865796 -0.500397 0.500397 0.865796 -3.611313 53.534746)" xml:space="preserve" x="158" y="41" text-anchor="end" font-family="Arial" font-size="18" font-weight="300" fill="#646464">Key Influencer</text>
                <text id="Colleague" transform="matrix(0.866025 -0.5 0.5 0.866025 -127.670126 184.528604)" xml:space="preserve" x="323" y="338" text-anchor="end" font-family="Arial" font-size="18" font-weight="300" fill="#646464">Colleague</text>
                <text id="Target" transform="matrix(-0 -1 1 -0 175 544)" xml:space="preserve" x="387" y="192" text-anchor="end" font-family="Arial" font-size="18" font-weight="300" fill="#646464">Target</text>
            </g>
        </g>
        <g id="ZIG360Chart-copy-38">
            <g id="g1">
                <path id="path5" fill="#000a2e" fill-opacity="0.647057" fill-rule="evenodd" stroke="none" d="M 185.855469 364.818359 C 179.640121 364.840302 173.418427 363.254303 167.837891 360.058594 L 44.240234 289.279297 C 33.079163 282.887878 26.174313 271.027496 26.128906 258.166016 L 25.626953 115.736328 C 25.600195 108.158783 27.958105 100.91275 32.171875 94.914063 C 31.524364 96.003082 31.197266 96.697266 31.197266 96.697266 L 185.226563 186.388672 L 183.306641 8.160156 C 183.306641 8.160156 182.76767 8.081573 181.828125 8.074219 C 188.948685 7.500305 196.203522 9.048187 202.613281 12.71875 L 326.212891 83.498047 C 337.373962 89.889435 344.276855 101.749847 344.322266 114.611328 L 344.824219 257.041016 C 344.869629 269.902466 338.051208 281.811188 326.935547 288.28125 L 203.837891 359.931641 C 198.28006 363.166687 192.070816 364.796417 185.855469 364.818359 Z M 164.722656 13.945313 L 166.613281 12.845703 C 168.144394 11.954498 169.72525 11.184601 171.341797 10.537109 C 171.202713 10.60379 171.063934 10.669983 170.923828 10.740234 C 169.191513 11.608856 167.084961 12.699005 164.722656 13.945313 Z"/>
            </g>
            <g id="g2"/>
        </g>
        <path id="Rectangle-copy-12" fill="#2eb5ed" fill-rule="evenodd" stroke="none" d="M 183 8 C 183 8 172.67749 9.322327 169.838867 10.715698 C 166.001953 12.599121 37.836914 88.081726 37.836914 88.081726 L 30 99 L 67 118 C 67 118 70.815552 112.299011 71.925415 111.124695 C 77.003418 105.75177 144.379028 67.726196 168.420288 54.258667 C 173.862061 51.210266 183 49 183 49 L 183 8 Z"/>
        <text id="C" xml:space="preserve" x="123" y="73" text-anchor="end" font-family="Arial" font-size="24" font-weight="700" fill="#ffffff">C</text>
    </g>
</svg>
