<?xml version="1.0" encoding="UTF-8"?>
<!-- Generated by Pixelmator Pro 3.2.3 -->
<svg width="371" height="370" viewBox="0 0 371 370" xmlns="http://www.w3.org/2000/svg" xmlns:xlink="http://www.w3.org/1999/xlink">
    <g id="Group-copy">
        <g id="ZIG360Chart-copy-6">
            <g id="Chart-polygons">
                <path id="Polygon" fill="#103ee3" fill-rule="evenodd" stroke="#0b0b6d" stroke-linecap="round" stroke-linejoin="round" d="M 204 13.392303 L 327.348663 84.607697 C 338.487122 91.038483 345.348663 102.923035 345.348663 115.784607 L 345.348663 258.215393 C 345.348663 271.076965 338.487122 282.961517 327.348663 289.392303 L 204 360.607697 C 192.861557 367.038483 179.138443 367.038483 168 360.607697 L 44.651325 289.392303 C 33.512886 282.961517 26.651325 271.076965 26.651325 258.215393 L 26.651325 115.784607 C 26.651325 102.923035 33.512886 91.038483 44.651325 84.607697 L 168 13.392303 C 179.138443 6.961517 192.861557 6.961517 204 13.392303 Z"/>
                <path id="Path" fill="#0678f3" fill-rule="evenodd" stroke="#02d7ea" stroke-linecap="round" stroke-linejoin="round" d="M 203.5 55.392303 L 290.042603 105.357697 C 301.18103 111.788483 308.042603 123.67305 308.042603 136.534607 L 308.042603 236.465393 C 308.042603 249.32695 301.18103 261.211517 290.042603 267.642303 L 203.5 317.607697 C 192.361557 324.038483 178.638443 324.038483 167.5 317.607697 L 80.957405 267.642303 C 69.81897 261.211517 62.957405 249.32695 62.957405 236.465393 L 62.957405 136.534607 C 62.957405 123.67305 69.81897 111.788483 80.957405 105.357697 L 167.5 55.392303 C 178.638443 48.961517 192.361557 48.961517 203.5 55.392303 Z"/>
                <path id="path1" fill="#02d7ea" fill-rule="evenodd" stroke="#02ffd5" stroke-linecap="round" stroke-linejoin="round" d="M 204.5 99.392303 L 252.937469 127.357697 C 264.075928 133.788483 270.937469 145.67305 270.937469 158.534607 L 270.937469 214.465393 C 270.937469 227.32695 264.075928 239.211517 252.937469 245.642303 L 204.5 273.607697 C 193.361557 280.038483 179.638443 280.038483 168.5 273.607697 L 120.062523 245.642303 C 108.924088 239.211517 102.062523 227.32695 102.062523 214.465393 L 102.062523 158.534607 C 102.062523 145.67305 108.924088 133.788483 120.062523 127.357697 L 168.5 99.392303 C 179.638443 92.961517 193.361557 92.961517 204.5 99.392303 Z"/>
                <path id="path2" fill="#02ffd5" fill-rule="evenodd" stroke="#ffffff" stroke-linecap="round" stroke-linejoin="round" d="M 196.999542 137.638916 L 221.499496 151.783218 C 229.234802 156.248962 234 164.502289 234 173.434143 L 234 200.565857 C 234 209.497711 229.234802 217.751038 221.499496 222.216782 L 197.999496 235.783798 C 190.264725 240.249222 180.735275 240.249222 173.000504 235.783798 L 149.500504 222.216782 C 141.765198 217.751038 137 209.497711 137 200.565857 L 137 173.434143 C 137 164.502289 141.765198 156.248962 149.500504 151.783218 L 174.000458 137.638916 C 181.116455 133.530716 189.883545 133.530716 196.999542 137.638916 Z"/>
            </g>
            <g id="chartLines">
                <path id="Line" fill="#ffffff" fill-rule="evenodd" stroke="#121284" stroke-width="2" stroke-linecap="round" stroke-linejoin="round" d="M 185.5 9.504822 L 185.5 365"/>
                <path id="path3" fill="none" stroke="#121284" stroke-width="2" stroke-linecap="round" stroke-linejoin="round" d="M 31 100.5 L 340 274"/>
                <path id="path4" fill="#ffffff" fill-rule="evenodd" stroke="#121284" stroke-width="2" stroke-linecap="round" stroke-linejoin="round" d="M 31 274 L 340 100.5"/>
            </g>
            <g id="Legends">
                <text id="Saboteur" transform="matrix(0.866025 0.5 -0.5 0.866025 57.963849 -135.324029)" xml:space="preserve" x="320" y="48" text-anchor="end" font-family="Arial" font-size="18" font-weight="300" fill="#646464">Saboteur</text>
                <text id="Friend" transform="matrix(0.866025 0.5 -0.5 0.866025 183.415409 -5.515625)" xml:space="preserve" x="129" y="347" text-anchor="end" font-family="Arial" font-size="18" font-weight="300" fill="#646464">Friend</text>
                <text id="2nd-Influencer" transform="matrix(-0 -1 1 -0 -166 187)" xml:space="preserve" x="70" y="184" text-anchor="end" font-family="Arial" font-size="18" font-weight="300" fill="#646464">2nd Influencer</text>
                <text id="Key-Influencer" transform="matrix(0.865796 -0.500397 0.500397 0.865796 -3.977506 54.169348)" xml:space="preserve" x="159" y="42" text-anchor="end" font-family="Arial" font-size="18" font-weight="300" fill="#646464">Key Influencer</text>
                <text id="Colleague" transform="matrix(0.866025 -0.5 0.5 0.866025 -128.036151 185.162579)" xml:space="preserve" x="324" y="339" text-anchor="end" font-family="Arial" font-size="18" font-weight="300" fill="#646464">Colleague</text>
                <text id="Target" transform="matrix(-0 -1 1 -0 175 546)" xml:space="preserve" x="388" y="193" text-anchor="end" font-family="Arial" font-size="18" font-weight="300" fill="#646464">Target</text>
            </g>
        </g>
        <g id="ZIG360Chart-copy-13">
            <g id="g1">
                <path id="path5" fill="#000a2e" fill-opacity="0.647057" fill-rule="evenodd" stroke="none" d="M 185.855469 364.818359 C 179.640121 364.840302 173.418427 363.254303 167.837891 360.058594 L 44.240234 289.279297 C 33.079163 282.887878 26.174313 271.027496 26.128906 258.166016 L 25.626953 115.736328 C 25.600195 108.158783 27.958105 100.91275 32.171875 94.914063 C 31.524364 96.003082 31.197266 96.697266 31.197266 96.697266 L 185.226563 186.388672 L 183.306641 8.160156 C 183.306641 8.160156 182.76767 8.081573 181.828125 8.074219 C 188.948685 7.500305 196.203522 9.048187 202.613281 12.71875 L 326.212891 83.498047 C 337.373962 89.889435 344.276855 101.749847 344.322266 114.611328 L 344.824219 257.041016 C 344.869629 269.902466 338.051208 281.811188 326.935547 288.28125 L 203.837891 359.931641 C 198.28006 363.166687 192.070816 364.796417 185.855469 364.818359 Z M 164.722656 13.945313 L 166.613281 12.845703 C 168.144394 11.954498 169.72525 11.184601 171.341797 10.537109 C 171.202713 10.60379 171.063934 10.669983 170.923828 10.740234 C 169.191513 11.608856 167.084961 12.699005 164.722656 13.945313 Z"/>
            </g>
            <g id="g2"/>
        </g>
        <path id="Path-copy-4" fill="#1eb100" fill-rule="evenodd" stroke="none" d="M 185.066986 187.168579 L 141.349365 160.447449 L 146.411545 155.215393 L 178.454483 136.715393 L 184.650635 135.447449 Z"/>
        <g id="Disc-Letters-copy-2">
            <text id="D" xml:space="preserve" x="182" y="169" text-anchor="end" font-family="Arial" font-size="24" font-weight="700" fill="#ffffff">D</text>
        </g>
    </g>
</svg>
