<?xml version="1.0" encoding="UTF-8"?>
<!-- Generated by Pixelmator Pro 3.2.3 -->
<svg width="371" height="370" viewBox="0 0 371 370" xmlns="http://www.w3.org/2000/svg" xmlns:xlink="http://www.w3.org/1999/xlink">
    <g id="Group-copy">
        <g id="ZIG360Chart-copy-35">
            <g id="Chart-polygons">
                <path id="Polygon" fill="#103ee3" fill-rule="evenodd" stroke="#0b0b6d" stroke-linecap="round" stroke-linejoin="round" d="M 203 11.392303 L 326.348663 82.607697 C 337.487122 89.038483 344.348663 100.923035 344.348663 113.784607 L 344.348663 256.215393 C 344.348663 269.076965 337.487122 280.961517 326.348663 287.392303 L 203 358.607697 C 191.861557 365.038483 178.138443 365.038483 167 358.607697 L 43.651325 287.392303 C 32.512886 280.961517 25.651325 269.076965 25.651325 256.215393 L 25.651325 113.784607 C 25.651325 100.923035 32.512886 89.038483 43.651325 82.607697 L 167 11.392303 C 178.138443 4.961517 191.861557 4.961517 203 11.392303 Z"/>
                <path id="Path" fill="#0678f3" fill-rule="evenodd" stroke="#02d7ea" stroke-linecap="round" stroke-linejoin="round" d="M 202.5 53.392303 L 289.042603 103.357697 C 300.18103 109.788483 307.042603 121.67305 307.042603 134.534607 L 307.042603 234.465393 C 307.042603 247.32695 300.18103 259.211517 289.042603 265.642303 L 202.5 315.607697 C 191.361557 322.038483 177.638443 322.038483 166.5 315.607697 L 79.957405 265.642303 C 68.81897 259.211517 61.957405 247.32695 61.957405 234.465393 L 61.957405 134.534607 C 61.957405 121.67305 68.81897 109.788483 79.957405 103.357697 L 166.5 53.392303 C 177.638443 46.961517 191.361557 46.961517 202.5 53.392303 Z"/>
                <path id="path1" fill="#02d7ea" fill-rule="evenodd" stroke="#02ffd5" stroke-linecap="round" stroke-linejoin="round" d="M 203.5 97.392303 L 251.937469 125.357697 C 263.075928 131.788483 269.937469 143.67305 269.937469 156.534607 L 269.937469 212.465393 C 269.937469 225.32695 263.075928 237.211517 251.937469 243.642303 L 203.5 271.607697 C 192.361557 278.038483 178.638443 278.038483 167.5 271.607697 L 119.062523 243.642303 C 107.924088 237.211517 101.062523 225.32695 101.062523 212.465393 L 101.062523 156.534607 C 101.062523 143.67305 107.924088 131.788483 119.062523 125.357697 L 167.5 97.392303 C 178.638443 90.961517 192.361557 90.961517 203.5 97.392303 Z"/>
                <path id="path2" fill="#02ffd5" fill-rule="evenodd" stroke="#ffffff" stroke-linecap="round" stroke-linejoin="round" d="M 195.999542 135.638916 L 220.499496 149.783218 C 228.234802 154.248962 233 162.502289 233 171.434143 L 233 198.565857 C 233 207.497711 228.234802 215.751038 220.499496 220.216782 L 196.999496 233.783798 C 189.264725 238.249222 179.735275 238.249222 172.000504 233.783798 L 148.500504 220.216782 C 140.765198 215.751038 136 207.497711 136 198.565857 L 136 171.434143 C 136 162.502289 140.765198 154.248962 148.500504 149.783218 L 173.000458 135.638916 C 180.116455 131.530716 188.883545 131.530716 195.999542 135.638916 Z"/>
            </g>
            <g id="chartLines">
                <path id="Line" fill="#ffffff" fill-rule="evenodd" stroke="#121284" stroke-width="2" stroke-linecap="round" stroke-linejoin="round" d="M 184.5 7.504822 L 184.5 363"/>
                <path id="path3" fill="none" stroke="#121284" stroke-width="2" stroke-linecap="round" stroke-linejoin="round" d="M 30 98.5 L 339 272"/>
                <path id="path4" fill="#ffffff" fill-rule="evenodd" stroke="#121284" stroke-width="2" stroke-linecap="round" stroke-linejoin="round" d="M 30 272 L 339 98.5"/>
            </g>
            <g id="Legends">
                <text id="Saboteur" transform="matrix(0.866025 0.5 -0.5 0.866025 56.829874 -135.091978)" xml:space="preserve" x="319" y="46" text-anchor="end" font-family="Arial" font-size="18" font-weight="300" fill="#646464">Saboteur</text>
                <text id="Friend" transform="matrix(0.866025 0.5 -0.5 0.866025 182.281434 -5.283574)" xml:space="preserve" x="128" y="345" text-anchor="end" font-family="Arial" font-size="18" font-weight="300" fill="#646464">Friend</text>
                <text id="2nd-Influencer" transform="matrix(-0 -1 1 -0 -165 184)" xml:space="preserve" x="69" y="182" text-anchor="end" font-family="Arial" font-size="18" font-weight="300" fill="#646464">2nd Influencer</text>
                <text id="Key-Influencer" transform="matrix(0.865796 -0.500397 0.500397 0.865796 -3.110916 53.400543)" xml:space="preserve" x="158" y="40" text-anchor="end" font-family="Arial" font-size="18" font-weight="300" fill="#646464">Key Influencer</text>
                <text id="Colleague" transform="matrix(0.866025 -0.5 0.5 0.866025 -127.170126 184.394629)" xml:space="preserve" x="323" y="337" text-anchor="end" font-family="Arial" font-size="18" font-weight="300" fill="#646464">Colleague</text>
                <text id="Target" transform="matrix(-0 -1 1 -0 176 543)" xml:space="preserve" x="387" y="191" text-anchor="end" font-family="Arial" font-size="18" font-weight="300" fill="#646464">Target</text>
            </g>
        </g>
        <g id="ZIG360Chart-copy-34">
            <g id="g1">
                <path id="path5" fill="#000a2e" fill-opacity="0.647057" fill-rule="evenodd" stroke="none" d="M 185.855469 364.818359 C 179.640121 364.840302 173.418427 363.254303 167.837891 360.058594 L 44.240234 289.279297 C 33.079163 282.887878 26.174313 271.027496 26.128906 258.166016 L 25.626953 115.736328 C 25.600195 108.158783 27.958105 100.91275 32.171875 94.914063 C 31.524364 96.003082 31.197266 96.697266 31.197266 96.697266 L 185.226563 186.388672 L 183.306641 8.160156 C 183.306641 8.160156 182.76767 8.081573 181.828125 8.074219 C 188.948685 7.500305 196.203522 9.048187 202.613281 12.71875 L 326.212891 83.498047 C 337.373962 89.889435 344.276855 101.749847 344.322266 114.611328 L 344.824219 257.041016 C 344.869629 269.902466 338.051208 281.811188 326.935547 288.28125 L 203.837891 359.931641 C 198.28006 363.166687 192.070816 364.796417 185.855469 364.818359 Z M 164.722656 13.945313 L 166.613281 12.845703 C 168.144394 11.954498 169.72525 11.184601 171.341797 10.537109 C 171.202713 10.60379 171.063934 10.669983 170.923828 10.740234 C 169.191513 11.608856 167.084961 12.699005 164.722656 13.945313 Z"/>
            </g>
            <g id="g2"/>
        </g>
        <path id="Rectangle-copy-10" fill="#f20d06" fill-rule="evenodd" stroke="none" d="M 184 92 L 170.212769 95.545532 C 170.212769 95.545532 130.487793 113.98999 114 128 C 110.389771 131.067749 105 139 105 139 L 140 159 L 145.777588 151.222412 L 174.356445 134.722412 L 184 132 L 184 92 Z"/>
        <text id="i" xml:space="preserve" x="156" y="133" text-anchor="end" font-family="Arial" font-size="22" font-weight="700" fill="#ffffff">i</text>
    </g>
</svg>
