<?xml version="1.0" encoding="UTF-8"?>
<!-- Generated by Pixelmator Pro 3.2.3 -->
<svg width="370" height="369" viewBox="0 0 370 369" xmlns="http://www.w3.org/2000/svg" xmlns:xlink="http://www.w3.org/1999/xlink">
    <g id="Group-copy">
        <g id="ZIG360Chart-copy-21">
            <g id="Chart-polygons">
                <path id="Polygon" fill="#103ee3" fill-rule="evenodd" stroke="#0b0b6d" stroke-linecap="round" stroke-linejoin="round" d="M 202 10.392303 L 325.348663 81.607697 C 336.487122 88.038483 343.348663 99.923035 343.348663 112.784607 L 343.348663 255.215393 C 343.348663 268.076965 336.487122 279.961517 325.348663 286.392303 L 202 357.607697 C 190.861557 364.038483 177.138443 364.038483 166 357.607697 L 42.651325 286.392303 C 31.512886 279.961517 24.651325 268.076965 24.651325 255.215393 L 24.651325 112.784607 C 24.651325 99.923035 31.512886 88.038483 42.651325 81.607697 L 166 10.392303 C 177.138443 3.961517 190.861557 3.961517 202 10.392303 Z"/>
                <path id="Path" fill="#0678f3" fill-rule="evenodd" stroke="#02d7ea" stroke-linecap="round" stroke-linejoin="round" d="M 201.5 52.392303 L 288.042603 102.357697 C 299.18103 108.788483 306.042603 120.67305 306.042603 133.534607 L 306.042603 233.465393 C 306.042603 246.32695 299.18103 258.211517 288.042603 264.642303 L 201.5 314.607697 C 190.361557 321.038483 176.638443 321.038483 165.5 314.607697 L 78.957405 264.642303 C 67.81897 258.211517 60.957405 246.32695 60.957405 233.465393 L 60.957405 133.534607 C 60.957405 120.67305 67.81897 108.788483 78.957405 102.357697 L 165.5 52.392303 C 176.638443 45.961517 190.361557 45.961517 201.5 52.392303 Z"/>
                <path id="path1" fill="#02d7ea" fill-rule="evenodd" stroke="#02ffd5" stroke-linecap="round" stroke-linejoin="round" d="M 202.5 96.392303 L 250.937469 124.357697 C 262.075928 130.788483 268.937469 142.67305 268.937469 155.534607 L 268.937469 211.465393 C 268.937469 224.32695 262.075928 236.211517 250.937469 242.642303 L 202.5 270.607697 C 191.361557 277.038483 177.638443 277.038483 166.5 270.607697 L 118.062523 242.642303 C 106.924088 236.211517 100.062523 224.32695 100.062523 211.465393 L 100.062523 155.534607 C 100.062523 142.67305 106.924088 130.788483 118.062523 124.357697 L 166.5 96.392303 C 177.638443 89.961517 191.361557 89.961517 202.5 96.392303 Z"/>
                <path id="path2" fill="#02ffd5" fill-rule="evenodd" stroke="#ffffff" stroke-linecap="round" stroke-linejoin="round" d="M 194.999542 134.638916 L 219.499496 148.783218 C 227.234802 153.248962 232 161.502289 232 170.434143 L 232 197.565857 C 232 206.497711 227.234802 214.751038 219.499496 219.216782 L 195.999496 232.783798 C 188.264725 237.249222 178.735275 237.249222 171.000504 232.783798 L 147.500504 219.216782 C 139.765198 214.751038 135 206.497711 135 197.565857 L 135 170.434143 C 135 161.502289 139.765198 153.248962 147.500504 148.783218 L 172.000458 134.638916 C 179.116455 130.530716 187.883545 130.530716 194.999542 134.638916 Z"/>
            </g>
            <g id="chartLines">
                <path id="Line" fill="#ffffff" fill-rule="evenodd" stroke="#121284" stroke-width="2" stroke-linecap="round" stroke-linejoin="round" d="M 183.5 6.504822 L 183.5 362"/>
                <path id="path3" fill="none" stroke="#121284" stroke-width="2" stroke-linecap="round" stroke-linejoin="round" d="M 29 97.5 L 338 271"/>
                <path id="path4" fill="#ffffff" fill-rule="evenodd" stroke="#121284" stroke-width="2" stroke-linecap="round" stroke-linejoin="round" d="M 29 271 L 338 97.5"/>
            </g>
            <g id="Legends">
                <text id="Saboteur" transform="matrix(0.866025 0.5 -0.5 0.866025 56.1959 -134.725953)" xml:space="preserve" x="318" y="45" text-anchor="end" font-family="Arial" font-size="18" font-weight="300" fill="#646464">Saboteur</text>
                <text id="Friend" transform="matrix(0.866025 0.5 -0.5 0.866025 181.64746 -4.917548)" xml:space="preserve" x="127" y="344" text-anchor="end" font-family="Arial" font-size="18" font-weight="300" fill="#646464">Friend</text>
                <text id="2nd-Influencer" transform="matrix(-0 -1 1 -0 -165 182)" xml:space="preserve" x="68" y="181" text-anchor="end" font-family="Arial" font-size="18" font-weight="300" fill="#646464">2nd Influencer</text>
                <text id="Key-Influencer" transform="matrix(0.865796 -0.500397 0.500397 0.865796 -2.744723 52.765941)" xml:space="preserve" x="157" y="39" text-anchor="end" font-family="Arial" font-size="18" font-weight="300" fill="#646464">Key Influencer</text>
                <text id="Colleague" transform="matrix(0.866025 -0.5 0.5 0.866025 -126.8041 183.760655)" xml:space="preserve" x="322" y="336" text-anchor="end" font-family="Arial" font-size="18" font-weight="300" fill="#646464">Colleague</text>
                <text id="Target" transform="matrix(-0 -1 1 -0 176 541)" xml:space="preserve" x="386" y="190" text-anchor="end" font-family="Arial" font-size="18" font-weight="300" fill="#646464">Target</text>
            </g>
        </g>
        <g id="ZIG360Chart-copy-20">
            <g id="g1">
                <path id="path5" fill="#000a2e" fill-opacity="0.647057" fill-rule="evenodd" stroke="none" d="M 185.087891 363.8125 C 179.06665 363.778992 173.048981 362.237244 167.621094 359.179688 L 43.523438 289.275391 C 32.317463 282.963043 25.331642 271.151855 25.195313 258.291016 L 23.685547 115.869141 C 23.549217 103.008301 30.283869 91.050446 41.353516 84.501953 L 163.941406 11.984375 C 170.298691 8.223602 177.530212 6.575562 184.658203 7.048828 C 183.717651 7.069366 183.179688 7.154297 183.179688 7.154297 L 183.779297 185.390625 L 336.525391 93.533203 C 336.525391 93.533203 336.178162 92.825928 335.5 91.724609 C 339.815002 97.670319 342.28476 104.897003 342.365234 112.490234 L 343.875 254.914063 C 344.011353 267.774902 337.274719 279.730835 326.205078 286.279297 L 203.619141 358.798828 C 197.911362 362.175385 191.497589 363.848175 185.087891 363.8125 Z M 201.904297 12.708984 C 199.499985 11.483276 197.358505 10.409668 195.599609 9.558594 C 195.457901 9.490021 195.316406 9.426331 195.175781 9.361328 C 196.802078 9.986084 198.395203 10.731689 199.939453 11.601563 L 201.904297 12.708984 Z"/>
            </g>
            <g id="g2"/>
        </g>
        <path id="Rectangle-copy-18" fill="#2eb5ed" fill-rule="evenodd" stroke="none" d="M 339 95 C 339 95 331.289063 84.977356 328.663086 83.215698 C 325.113525 80.834534 195.661133 7.581665 195.661133 7.581665 L 184 6 L 184.332764 47.796814 C 184.332764 47.796814 191.177734 48.250793 192.749756 48.624756 C 199.94165 50.335876 266.560791 89.67218 290.244629 103.758789 C 295.605225 106.947205 301 115 301 115 L 339 95 Z"/>
        <text id="C" xml:space="preserve" x="265" y="72" text-anchor="end" font-family="Arial" font-size="24" font-weight="700" fill="#ffffff">C</text>
    </g>
</svg>
