<?xml version="1.0" encoding="UTF-8"?>
<!-- Generated by Pixelmator Pro 3.2.3 -->
<svg width="370" height="369" viewBox="0 0 370 369" xmlns="http://www.w3.org/2000/svg" xmlns:xlink="http://www.w3.org/1999/xlink">
    <g id="Group-copy">
        <g id="ZIG360Chart-copy-16">
            <g id="Chart-polygons">
                <path id="Polygon" fill="#103ee3" fill-rule="evenodd" stroke="#0b0b6d" stroke-linecap="round" stroke-linejoin="round" d="M 202 12.392303 L 325.348663 83.607697 C 336.487122 90.038483 343.348663 101.923035 343.348663 114.784607 L 343.348663 257.215393 C 343.348663 270.076965 336.487122 281.961517 325.348663 288.392303 L 202 359.607697 C 190.861557 366.038483 177.138443 366.038483 166 359.607697 L 42.651325 288.392303 C 31.512886 281.961517 24.651325 270.076965 24.651325 257.215393 L 24.651325 114.784607 C 24.651325 101.923035 31.512886 90.038483 42.651325 83.607697 L 166 12.392303 C 177.138443 5.961517 190.861557 5.961517 202 12.392303 Z"/>
                <path id="Path" fill="#0678f3" fill-rule="evenodd" stroke="#02d7ea" stroke-linecap="round" stroke-linejoin="round" d="M 201.5 54.392303 L 288.042603 104.357697 C 299.18103 110.788483 306.042603 122.67305 306.042603 135.534607 L 306.042603 235.465393 C 306.042603 248.32695 299.18103 260.211517 288.042603 266.642303 L 201.5 316.607697 C 190.361557 323.038483 176.638443 323.038483 165.5 316.607697 L 78.957405 266.642303 C 67.81897 260.211517 60.957405 248.32695 60.957405 235.465393 L 60.957405 135.534607 C 60.957405 122.67305 67.81897 110.788483 78.957405 104.357697 L 165.5 54.392303 C 176.638443 47.961517 190.361557 47.961517 201.5 54.392303 Z"/>
                <path id="path1" fill="#02d7ea" fill-rule="evenodd" stroke="#02ffd5" stroke-linecap="round" stroke-linejoin="round" d="M 202.5 98.392303 L 250.937469 126.357697 C 262.075928 132.788483 268.937469 144.67305 268.937469 157.534607 L 268.937469 213.465393 C 268.937469 226.32695 262.075928 238.211517 250.937469 244.642303 L 202.5 272.607697 C 191.361557 279.038483 177.638443 279.038483 166.5 272.607697 L 118.062523 244.642303 C 106.924088 238.211517 100.062523 226.32695 100.062523 213.465393 L 100.062523 157.534607 C 100.062523 144.67305 106.924088 132.788483 118.062523 126.357697 L 166.5 98.392303 C 177.638443 91.961517 191.361557 91.961517 202.5 98.392303 Z"/>
                <path id="path2" fill="#02ffd5" fill-rule="evenodd" stroke="#ffffff" stroke-linecap="round" stroke-linejoin="round" d="M 194.999542 136.638916 L 219.499496 150.783218 C 227.234802 155.248962 232 163.502289 232 172.434143 L 232 199.565857 C 232 208.497711 227.234802 216.751038 219.499496 221.216782 L 195.999496 234.783798 C 188.264725 239.249222 178.735275 239.249222 171.000504 234.783798 L 147.500504 221.216782 C 139.765198 216.751038 135 208.497711 135 199.565857 L 135 172.434143 C 135 163.502289 139.765198 155.248962 147.500504 150.783218 L 172.000458 136.638916 C 179.116455 132.530716 187.883545 132.530716 194.999542 136.638916 Z"/>
            </g>
            <g id="chartLines">
                <path id="Line" fill="#ffffff" fill-rule="evenodd" stroke="#121284" stroke-width="2" stroke-linecap="round" stroke-linejoin="round" d="M 183.5 8.504822 L 183.5 364"/>
                <path id="path3" fill="none" stroke="#121284" stroke-width="2" stroke-linecap="round" stroke-linejoin="round" d="M 29 99.5 L 338 273"/>
                <path id="path4" fill="#ffffff" fill-rule="evenodd" stroke="#121284" stroke-width="2" stroke-linecap="round" stroke-linejoin="round" d="M 29 273 L 338 99.5"/>
            </g>
            <g id="Legends">
                <text id="Saboteur" transform="matrix(0.866025 0.5 -0.5 0.866025 57.1959 -134.458003)" xml:space="preserve" x="318" y="47" text-anchor="end" font-family="Arial" font-size="18" font-weight="300" fill="#646464">Saboteur</text>
                <text id="Friend" transform="matrix(0.866025 0.5 -0.5 0.866025 182.64746 -4.649599)" xml:space="preserve" x="127" y="346" text-anchor="end" font-family="Arial" font-size="18" font-weight="300" fill="#646464">Friend</text>
                <text id="2nd-Influencer" transform="matrix(-0 -1 1 -0 -167 184)" xml:space="preserve" x="68" y="183" text-anchor="end" font-family="Arial" font-size="18" font-weight="300" fill="#646464">2nd Influencer</text>
                <text id="Key-Influencer" transform="matrix(0.865796 -0.500397 0.500397 0.865796 -3.745517 53.034349)" xml:space="preserve" x="157" y="41" text-anchor="end" font-family="Arial" font-size="18" font-weight="300" fill="#646464">Key Influencer</text>
                <text id="Colleague" transform="matrix(0.866025 -0.5 0.5 0.866025 -127.8041 184.028604)" xml:space="preserve" x="322" y="338" text-anchor="end" font-family="Arial" font-size="18" font-weight="300" fill="#646464">Colleague</text>
                <text id="Target" transform="matrix(-0 -1 1 -0 174 543)" xml:space="preserve" x="386" y="192" text-anchor="end" font-family="Arial" font-size="18" font-weight="300" fill="#646464">Target</text>
            </g>
        </g>
        <g id="ZIG360Chart-copy-15">
            <g id="g1">
                <path id="path5" fill="#000a2e" fill-opacity="0.647057" fill-rule="evenodd" stroke="none" d="M 185.087891 363.8125 C 179.06665 363.778992 173.048981 362.237244 167.621094 359.179688 L 43.523438 289.275391 C 32.317463 282.963043 25.331642 271.151855 25.195313 258.291016 L 23.685547 115.869141 C 23.549217 103.008301 30.283869 91.050446 41.353516 84.501953 L 163.941406 11.984375 C 170.298691 8.223602 177.530212 6.575562 184.658203 7.048828 C 183.717651 7.069366 183.179688 7.154297 183.179688 7.154297 L 183.779297 185.390625 L 336.525391 93.533203 C 336.525391 93.533203 336.178162 92.825928 335.5 91.724609 C 339.815002 97.670319 342.28476 104.897003 342.365234 112.490234 L 343.875 254.914063 C 344.011353 267.774902 337.274719 279.730835 326.205078 286.279297 L 203.619141 358.798828 C 197.911362 362.175385 191.497589 363.848175 185.087891 363.8125 Z M 201.904297 12.708984 C 199.499985 11.483276 197.358505 10.409668 195.599609 9.558594 C 195.457901 9.490021 195.316406 9.426331 195.175781 9.361328 C 196.802078 9.986084 198.395203 10.731689 199.939453 11.601563 L 201.904297 12.708984 Z"/>
            </g>
            <g id="g2"/>
        </g>
        <path id="Rectangle-copy-14" fill="#f20d06" fill-rule="evenodd" stroke="none" d="M 263 139 L 255.212891 129.545532 C 255.212891 129.545532 218.050293 107.328979 198 97 C 193.78833 94.830322 184.973633 94.796753 184.973633 94.796753 L 185 134 L 193 136 L 223 153 L 229 159 L 263 139 Z"/>
        <text id="i" xml:space="preserve" x="221" y="137" text-anchor="end" font-family="Arial" font-size="22" font-weight="700" fill="#ffffff">i</text>
    </g>
</svg>
