<?xml version="1.0" encoding="UTF-8"?>
<!-- Generated by Pixelmator Pro 3.2.3 -->
<svg width="370" height="369" viewBox="0 0 370 369" xmlns="http://www.w3.org/2000/svg" xmlns:xlink="http://www.w3.org/1999/xlink">
    <g id="Group-copy">
        <g id="ZIG360Chart-copy-19">
            <g id="Chart-polygons">
                <path id="Polygon" fill="#103ee3" fill-rule="evenodd" stroke="#0b0b6d" stroke-linecap="round" stroke-linejoin="round" d="M 202 11.392303 L 325.348663 82.607697 C 336.487122 89.038483 343.348663 100.923035 343.348663 113.784607 L 343.348663 256.215393 C 343.348663 269.076965 336.487122 280.961517 325.348663 287.392303 L 202 358.607697 C 190.861557 365.038483 177.138443 365.038483 166 358.607697 L 42.651325 287.392303 C 31.512886 280.961517 24.651325 269.076965 24.651325 256.215393 L 24.651325 113.784607 C 24.651325 100.923035 31.512886 89.038483 42.651325 82.607697 L 166 11.392303 C 177.138443 4.961517 190.861557 4.961517 202 11.392303 Z"/>
                <path id="Path" fill="#0678f3" fill-rule="evenodd" stroke="#02d7ea" stroke-linecap="round" stroke-linejoin="round" d="M 201.5 53.392303 L 288.042603 103.357697 C 299.18103 109.788483 306.042603 121.67305 306.042603 134.534607 L 306.042603 234.465393 C 306.042603 247.32695 299.18103 259.211517 288.042603 265.642303 L 201.5 315.607697 C 190.361557 322.038483 176.638443 322.038483 165.5 315.607697 L 78.957405 265.642303 C 67.81897 259.211517 60.957405 247.32695 60.957405 234.465393 L 60.957405 134.534607 C 60.957405 121.67305 67.81897 109.788483 78.957405 103.357697 L 165.5 53.392303 C 176.638443 46.961517 190.361557 46.961517 201.5 53.392303 Z"/>
                <path id="path1" fill="#02d7ea" fill-rule="evenodd" stroke="#02ffd5" stroke-linecap="round" stroke-linejoin="round" d="M 202.5 97.392303 L 250.937469 125.357697 C 262.075928 131.788483 268.937469 143.67305 268.937469 156.534607 L 268.937469 212.465393 C 268.937469 225.32695 262.075928 237.211517 250.937469 243.642303 L 202.5 271.607697 C 191.361557 278.038483 177.638443 278.038483 166.5 271.607697 L 118.062523 243.642303 C 106.924088 237.211517 100.062523 225.32695 100.062523 212.465393 L 100.062523 156.534607 C 100.062523 143.67305 106.924088 131.788483 118.062523 125.357697 L 166.5 97.392303 C 177.638443 90.961517 191.361557 90.961517 202.5 97.392303 Z"/>
                <path id="path2" fill="#02ffd5" fill-rule="evenodd" stroke="#ffffff" stroke-linecap="round" stroke-linejoin="round" d="M 194.999542 135.638916 L 219.499496 149.783218 C 227.234802 154.248962 232 162.502289 232 171.434143 L 232 198.565857 C 232 207.497711 227.234802 215.751038 219.499496 220.216782 L 195.999496 233.783798 C 188.264725 238.249222 178.735275 238.249222 171.000504 233.783798 L 147.500504 220.216782 C 139.765198 215.751038 135 207.497711 135 198.565857 L 135 171.434143 C 135 162.502289 139.765198 154.248962 147.500504 149.783218 L 172.000458 135.638916 C 179.116455 131.530716 187.883545 131.530716 194.999542 135.638916 Z"/>
            </g>
            <g id="chartLines">
                <path id="Line" fill="#ffffff" fill-rule="evenodd" stroke="#121284" stroke-width="2" stroke-linecap="round" stroke-linejoin="round" d="M 183.5 7.504822 L 183.5 363"/>
                <path id="path3" fill="none" stroke="#121284" stroke-width="2" stroke-linecap="round" stroke-linejoin="round" d="M 29 98.5 L 338 272"/>
                <path id="path4" fill="#ffffff" fill-rule="evenodd" stroke="#121284" stroke-width="2" stroke-linecap="round" stroke-linejoin="round" d="M 29 272 L 338 98.5"/>
            </g>
            <g id="Legends">
                <text id="Saboteur" transform="matrix(0.866025 0.5 -0.5 0.866025 56.6959 -134.591978)" xml:space="preserve" x="318" y="46" text-anchor="end" font-family="Arial" font-size="18" font-weight="300" fill="#646464">Saboteur</text>
                <text id="Friend" transform="matrix(0.866025 0.5 -0.5 0.866025 182.14746 -4.783574)" xml:space="preserve" x="127" y="345" text-anchor="end" font-family="Arial" font-size="18" font-weight="300" fill="#646464">Friend</text>
                <text id="2nd-Influencer" transform="matrix(-0 -1 1 -0 -166 183)" xml:space="preserve" x="68" y="182" text-anchor="end" font-family="Arial" font-size="18" font-weight="300" fill="#646464">2nd Influencer</text>
                <text id="Key-Influencer" transform="matrix(0.865796 -0.500397 0.500397 0.865796 -3.24512 52.900145)" xml:space="preserve" x="157" y="40" text-anchor="end" font-family="Arial" font-size="18" font-weight="300" fill="#646464">Key Influencer</text>
                <text id="Colleague" transform="matrix(0.866025 -0.5 0.5 0.866025 -127.3041 183.894629)" xml:space="preserve" x="322" y="337" text-anchor="end" font-family="Arial" font-size="18" font-weight="300" fill="#646464">Colleague</text>
                <text id="Target" transform="matrix(-0 -1 1 -0 175 542)" xml:space="preserve" x="386" y="191" text-anchor="end" font-family="Arial" font-size="18" font-weight="300" fill="#646464">Target</text>
            </g>
        </g>
        <g id="ZIG360Chart-copy-18">
            <g id="g1">
                <path id="path5" fill="#000a2e" fill-opacity="0.647057" fill-rule="evenodd" stroke="none" d="M 185.087891 363.8125 C 179.06665 363.778992 173.048981 362.237244 167.621094 359.179688 L 43.523438 289.275391 C 32.317463 282.963043 25.331642 271.151855 25.195313 258.291016 L 23.685547 115.869141 C 23.549217 103.008301 30.283869 91.050446 41.353516 84.501953 L 163.941406 11.984375 C 170.298691 8.223602 177.530212 6.575562 184.658203 7.048828 C 183.717651 7.069366 183.179688 7.154297 183.179688 7.154297 L 183.779297 185.390625 L 336.525391 93.533203 C 336.525391 93.533203 336.178162 92.825928 335.5 91.724609 C 339.815002 97.670319 342.28476 104.897003 342.365234 112.490234 L 343.875 254.914063 C 344.011353 267.774902 337.274719 279.730835 326.205078 286.279297 L 203.619141 358.798828 C 197.911362 362.175385 191.497589 363.848175 185.087891 363.8125 Z M 201.904297 12.708984 C 199.499985 11.483276 197.358505 10.409668 195.599609 9.558594 C 195.457901 9.490021 195.316406 9.426331 195.175781 9.361328 C 196.802078 9.986084 198.395203 10.731689 199.939453 11.601563 L 201.904297 12.708984 Z"/>
            </g>
            <g id="g2"/>
        </g>
        <path id="Rectangle-copy-16" fill="#f9e231" fill-rule="evenodd" stroke="none" d="M 300.401886 116.591125 C 300.401886 116.591125 295.437225 108.274109 292.16983 106.332794 C 262.900177 88.942444 207.998322 58.12384 197.038422 51.560394 C 193.958328 49.715851 185.744186 49.998199 185.744186 49.998199 L 184.945175 93.46817 C 184.945175 93.46817 188.647583 92.437927 194.873383 94.664307 C 205.642761 98.515289 257.916321 129.857895 257.916321 129.857895 C 257.916321 129.857895 264.028809 137.591125 264.028809 137.591125 L 300.401886 116.591125 Z"/>
        <text id="S" xml:space="preserve" x="243" y="104" text-anchor="end" font-family="Arial" font-size="22" font-weight="700" fill="#ffffff">S</text>
    </g>
</svg>
