<?xml version="1.0" encoding="UTF-8"?>
<!-- Generated by Pixelmator Pro 3.2.3 -->
<svg width="356" height="367" viewBox="0 0 356 367" xmlns="http://www.w3.org/2000/svg" xmlns:xlink="http://www.w3.org/1999/xlink">
    <g id="ZIG360Chart-copy">
        <g id="Chart-polygons">
            <path id="Polygon" fill="#103ee3" fill-rule="evenodd" stroke="#0b0b6d" stroke-linecap="round" stroke-linejoin="round" d="M 196 18.392303 L 319.348663 89.607697 C 330.487122 96.038483 337.348663 107.923035 337.348663 120.784607 L 337.348663 263.215393 C 337.348663 276.076965 330.487122 287.961517 319.348663 294.392303 L 196 365.607697 C 184.861557 372.038483 171.138443 372.038483 160 365.607697 L 36.651325 294.392303 C 25.512886 287.961517 18.651325 276.076965 18.651325 263.215393 L 18.651325 120.784607 C 18.651325 107.923035 25.512886 96.038483 36.651325 89.607697 L 160 18.392303 C 171.138443 11.961517 184.861557 11.961517 196 18.392303 Z"/>
            <path id="Path" fill="#0678f3" fill-rule="evenodd" stroke="#02d7ea" stroke-linecap="round" stroke-linejoin="round" d="M 195.5 60.392303 L 282.042603 110.357697 C 293.18103 116.788483 300.042603 128.67305 300.042603 141.534607 L 300.042603 241.465393 C 300.042603 254.32695 293.18103 266.211517 282.042603 272.642303 L 195.5 322.607697 C 184.361557 329.038483 170.638443 329.038483 159.5 322.607697 L 72.957405 272.642303 C 61.81897 266.211517 54.957405 254.32695 54.957405 241.465393 L 54.957405 141.534607 C 54.957405 128.67305 61.81897 116.788483 72.957405 110.357697 L 159.5 60.392303 C 170.638443 53.961517 184.361557 53.961517 195.5 60.392303 Z"/>
            <path id="path1" fill="#02d7ea" fill-rule="evenodd" stroke="#02ffd5" stroke-linecap="round" stroke-linejoin="round" d="M 196.5 104.392303 L 244.937469 132.357697 C 256.075928 138.788483 262.937469 150.67305 262.937469 163.534607 L 262.937469 219.465393 C 262.937469 232.32695 256.075928 244.211517 244.937469 250.642303 L 196.5 278.607697 C 185.361557 285.038483 171.638443 285.038483 160.5 278.607697 L 112.062523 250.642303 C 100.924088 244.211517 94.062523 232.32695 94.062523 219.465393 L 94.062523 163.534607 C 94.062523 150.67305 100.924088 138.788483 112.062523 132.357697 L 160.5 104.392303 C 171.638443 97.961517 185.361557 97.961517 196.5 104.392303 Z"/>
            <path id="path2" fill="#02ffd5" fill-rule="evenodd" stroke="#ffffff" stroke-linecap="round" stroke-linejoin="round" d="M 188.999542 142.638916 L 213.499496 156.783218 C 221.234802 161.248962 226 169.502289 226 178.434143 L 226 205.565857 C 226 214.497711 221.234802 222.751038 213.499496 227.216782 L 189.999496 240.783798 C 182.264725 245.249222 172.735275 245.249222 165.000504 240.783798 L 141.500504 227.216782 C 133.765198 222.751038 129 214.497711 129 205.565857 L 129 178.434143 C 129 169.502289 133.765198 161.248962 141.500504 156.783218 L 166.000458 142.638916 C 173.116455 138.530716 181.883545 138.530716 188.999542 142.638916 Z"/>
        </g>
        <g id="chartLines">
            <path id="Line" fill="#ffffff" fill-rule="evenodd" stroke="#121284" stroke-width="2" stroke-linecap="round" stroke-linejoin="round" d="M 177.5 14.504822 L 177.5 370"/>
            <path id="path3" fill="none" stroke="#121284" stroke-width="2" stroke-linecap="round" stroke-linejoin="round" d="M 23 105.5 L 332 279"/>
            <path id="path4" fill="#ffffff" fill-rule="evenodd" stroke="#121284" stroke-width="2" stroke-linecap="round" stroke-linejoin="round" d="M 23 279 L 332 105.5"/>
        </g>
        <g id="Legends">
            <text id="Saboteur" transform="matrix(0.866025 0.5 -0.5 0.866025 59.392052 -130.654156)" xml:space="preserve" x="312" y="53" text-anchor="end" font-family="Arial" font-size="18" font-weight="300" fill="#646464">Saboteur</text>
            <text id="Friend" transform="matrix(0.866025 0.5 -0.5 0.866025 184.843612 -0.845752)" xml:space="preserve" x="121" y="352" text-anchor="end" font-family="Arial" font-size="18" font-weight="300" fill="#646464">Friend</text>
            <text id="2nd-Influencer" transform="matrix(-0 -1 1 -0 -179 184)" xml:space="preserve" x="62" y="189" text-anchor="end" font-family="Arial" font-size="18" font-weight="300" fill="#646464">2nd Influencer</text>
            <text id="Key-Influencer" transform="matrix(0.865796 -0.500397 0.500397 0.865796 -7.553123 50.837191)" xml:space="preserve" x="151" y="47" text-anchor="end" font-family="Arial" font-size="18" font-weight="300" fill="#646464">Key Influencer</text>
            <text id="Colleague" transform="matrix(0.866025 -0.5 0.5 0.866025 -131.607948 181.832452)" xml:space="preserve" x="316" y="344" text-anchor="end" font-family="Arial" font-size="18" font-weight="300" fill="#646464">Colleague</text>
            <text id="Target" transform="matrix(-0 -1 1 -0 162 543)" xml:space="preserve" x="380" y="198" text-anchor="end" font-family="Arial" font-size="18" font-weight="300" fill="#646464">Target</text>
        </g>
    </g>
    <g id="ZIG360Chart-copy-4">
        <g id="g1">
            <path id="path5" fill="#000a2e" fill-opacity="0.647057" fill-rule="evenodd" stroke="none" d="M 177 370.431641 C 170.784622 370.431641 164.569214 368.822815 159 365.607422 L 35.650391 294.392578 C 24.511963 287.961792 17.650391 276.076416 17.650391 263.214844 L 17.650391 120.785156 C 17.650391 107.923584 24.511963 96.038208 35.650391 89.607422 L 159 18.392578 C 170.138428 11.961792 183.861572 11.961792 195 18.392578 L 318.349609 89.607422 C 324.746307 93.300537 329.730377 98.793732 332.816406 105.236328 C 332.337006 104.427216 332 104 332 104 L 177 192 L 332 280 C 332 280 332.44165 279.357361 333.064453 278.234375 C 330.001129 284.90564 324.92099 290.598572 318.349609 294.392578 L 195 365.607422 C 189.430786 368.822815 183.215378 370.431641 177 370.431641 Z M 336.349609 123.011719 C 336.237854 120.326736 336.121338 117.943604 336 116 C 335.99054 115.848312 335.978668 115.699951 335.966797 115.550781 C 336.219147 117.269379 336.349609 119.018066 336.349609 120.785156 L 336.349609 123.011719 Z"/>
        </g>
        <g id="g2"/>
    </g>
    <path id="Path-copy" fill="#1eb100" fill-rule="evenodd" stroke="none" d="M 178 192.5 L 223 217 L 225 210 L 225 173 L 223 167 Z"/>
    <g id="Disc-Letters-copy">
        <text id="D" xml:space="preserve" x="222" y="201" text-anchor="end" font-family="Arial" font-size="24" font-weight="700" fill="#ffffff">D</text>
    </g>
</svg>
