<?xml version="1.0" encoding="UTF-8"?>
<!-- Generated by Pixelmator Pro 3.2.3 -->
<svg width="369" height="368" viewBox="0 0 369 368" xmlns="http://www.w3.org/2000/svg" xmlns:xlink="http://www.w3.org/1999/xlink">
    <g id="ZIG360Chart-copy-48">
        <g id="Chart-polygons">
            <path id="Polygon" fill="#103ee3" fill-rule="evenodd" stroke="#0b0b6d" stroke-linecap="round" stroke-linejoin="round" d="M 203 19.392303 L 326.348663 90.607697 C 337.487122 97.038483 344.348663 108.923035 344.348663 121.784607 L 344.348663 264.215393 C 344.348663 277.076965 337.487122 288.961517 326.348663 295.392303 L 203 366.607697 C 191.861557 373.038483 178.138443 373.038483 167 366.607697 L 43.651325 295.392303 C 32.512886 288.961517 25.651325 277.076965 25.651325 264.215393 L 25.651325 121.784607 C 25.651325 108.923035 32.512886 97.038483 43.651325 90.607697 L 167 19.392303 C 178.138443 12.961517 191.861557 12.961517 203 19.392303 Z"/>
            <path id="Path" fill="#0678f3" fill-rule="evenodd" stroke="#02d7ea" stroke-linecap="round" stroke-linejoin="round" d="M 202.5 61.392303 L 289.042603 111.357697 C 300.18103 117.788483 307.042603 129.67305 307.042603 142.534607 L 307.042603 242.465393 C 307.042603 255.32695 300.18103 267.211517 289.042603 273.642303 L 202.5 323.607697 C 191.361557 330.038483 177.638443 330.038483 166.5 323.607697 L 79.957405 273.642303 C 68.81897 267.211517 61.957405 255.32695 61.957405 242.465393 L 61.957405 142.534607 C 61.957405 129.67305 68.81897 117.788483 79.957405 111.357697 L 166.5 61.392303 C 177.638443 54.961517 191.361557 54.961517 202.5 61.392303 Z"/>
            <path id="path1" fill="#02d7ea" fill-rule="evenodd" stroke="#02ffd5" stroke-linecap="round" stroke-linejoin="round" d="M 203.5 105.392303 L 251.937469 133.357697 C 263.075928 139.788483 269.937469 151.67305 269.937469 164.534607 L 269.937469 220.465393 C 269.937469 233.32695 263.075928 245.211517 251.937469 251.642303 L 203.5 279.607697 C 192.361557 286.038483 178.638443 286.038483 167.5 279.607697 L 119.062523 251.642303 C 107.924088 245.211517 101.062523 233.32695 101.062523 220.465393 L 101.062523 164.534607 C 101.062523 151.67305 107.924088 139.788483 119.062523 133.357697 L 167.5 105.392303 C 178.638443 98.961517 192.361557 98.961517 203.5 105.392303 Z"/>
            <path id="path2" fill="#02ffd5" fill-rule="evenodd" stroke="#ffffff" stroke-linecap="round" stroke-linejoin="round" d="M 195.999542 143.638916 L 220.499496 157.783218 C 228.234802 162.248962 233 170.502289 233 179.434143 L 233 206.565857 C 233 215.497711 228.234802 223.751038 220.499496 228.216782 L 196.999496 241.783798 C 189.264725 246.249222 179.735275 246.249222 172.000504 241.783798 L 148.500504 228.216782 C 140.765198 223.751038 136 215.497711 136 206.565857 L 136 179.434143 C 136 170.502289 140.765198 162.248962 148.500504 157.783218 L 173.000458 143.638916 C 180.116455 139.530716 188.883545 139.530716 195.999542 143.638916 Z"/>
        </g>
        <g id="chartLines">
            <path id="Line" fill="#ffffff" fill-rule="evenodd" stroke="#121284" stroke-width="2" stroke-linecap="round" stroke-linejoin="round" d="M 184.5 15.504822 L 184.5 371"/>
            <path id="path3" fill="none" stroke="#121284" stroke-width="2" stroke-linecap="round" stroke-linejoin="round" d="M 30 106.5 L 339 280"/>
            <path id="path4" fill="#ffffff" fill-rule="evenodd" stroke="#121284" stroke-width="2" stroke-linecap="round" stroke-linejoin="round" d="M 30 280 L 339 106.5"/>
        </g>
        <g id="Legends">
            <text id="Saboteur" transform="matrix(0.866025 0.5 -0.5 0.866025 60.829874 -134.020181)" xml:space="preserve" x="319" y="54" text-anchor="end" font-family="Arial" font-size="18" font-weight="300" fill="#646464">Saboteur</text>
            <text id="Friend" transform="matrix(0.866025 0.5 -0.5 0.866025 186.281434 -4.211777)" xml:space="preserve" x="128" y="353" text-anchor="end" font-family="Arial" font-size="18" font-weight="300" fill="#646464">Friend</text>
            <text id="2nd-Influencer" transform="matrix(-0 -1 1 -0 -173 192)" xml:space="preserve" x="69" y="190" text-anchor="end" font-family="Arial" font-size="18" font-weight="300" fill="#646464">2nd Influencer</text>
            <text id="Key-Influencer" transform="matrix(0.865796 -0.500397 0.500397 0.865796 -7.114093 54.474174)" xml:space="preserve" x="158" y="48" text-anchor="end" font-family="Arial" font-size="18" font-weight="300" fill="#646464">Key Influencer</text>
            <text id="Colleague" transform="matrix(0.866025 -0.5 0.5 0.866025 -131.170126 185.466426)" xml:space="preserve" x="323" y="345" text-anchor="end" font-family="Arial" font-size="18" font-weight="300" fill="#646464">Colleague</text>
            <text id="Target" transform="matrix(-0 -1 1 -0 168 551)" xml:space="preserve" x="387" y="199" text-anchor="end" font-family="Arial" font-size="18" font-weight="300" fill="#646464">Target</text>
        </g>
        <g id="Disc-Letters">
            <text id="i" xml:space="preserve" x="258" y="202" text-anchor="end" font-family="Arial" font-size="24" font-weight="700" fill="#ffffff">i</text>
        </g>
    </g>
    <g id="ZIG360Chart-copy-47">
        <g id="g1">
            <path id="path5" fill="#000a2e" fill-opacity="0.647057" fill-rule="evenodd" stroke="none" d="M 184 371.431641 C 177.784622 371.431641 171.569214 369.822815 166 366.607422 L 42.650391 295.392578 C 31.511963 288.961792 24.650391 277.076416 24.650391 264.214844 L 24.650391 121.785156 C 24.650391 108.923584 31.511963 97.038208 42.650391 90.607422 L 166 19.392578 C 177.138428 12.961792 190.861572 12.961792 202 19.392578 L 325.349609 90.607422 C 331.746307 94.300537 336.730377 99.793732 339.816406 106.236328 C 339.337006 105.427216 339 105 339 105 L 184 193 L 339 281 C 339 281 339.44165 280.357361 340.064453 279.234375 C 337.001129 285.90564 331.92099 291.598572 325.349609 295.392578 L 202 366.607422 C 196.430786 369.822815 190.215378 371.431641 184 371.431641 Z M 343.349609 124.011719 C 343.237854 121.326736 343.121338 118.943604 343 117 C 342.99054 116.848312 342.978668 116.699951 342.966797 116.550781 C 343.219147 118.269379 343.349609 120.018066 343.349609 121.785156 L 343.349609 124.011719 Z"/>
        </g>
        <g id="g2"/>
    </g>
    <path id="Rectangle-copy" fill="#f20d06" fill-rule="evenodd" stroke="none" d="M 266 149 L 269 161 L 269 224 L 265 237 L 231 218 L 233 210 L 233 177 L 231 169 Z"/>
    <text id="text1" xml:space="preserve" x="256" y="201" text-anchor="end" font-family="Arial" font-size="22" font-weight="700" fill="#ffffff">i</text>
</svg>
