<?xml version="1.0" encoding="UTF-8"?>
<!-- Generated by Pixelmator Pro 3.2.3 -->
<svg width="369" height="370" viewBox="0 0 369 370" xmlns="http://www.w3.org/2000/svg" xmlns:xlink="http://www.w3.org/1999/xlink">
    <g id="ZIG360Chart-copy">
        <g id="Chart-polygons">
            <path id="Polygon" fill="#103ee3" fill-rule="evenodd" stroke="#0b0b6d" stroke-linecap="round" stroke-linejoin="round" d="M 203 10.392303 L 326.348663 81.607697 C 337.487122 88.038483 344.348663 99.923035 344.348663 112.784607 L 344.348663 255.215393 C 344.348663 268.076965 337.487122 279.961517 326.348663 286.392303 L 203 357.607697 C 191.861557 364.038483 178.138443 364.038483 167 357.607697 L 43.651325 286.392303 C 32.512886 279.961517 25.651325 268.076965 25.651325 255.215393 L 25.651325 112.784607 C 25.651325 99.923035 32.512886 88.038483 43.651325 81.607697 L 167 10.392303 C 178.138443 3.961517 191.861557 3.961517 203 10.392303 Z"/>
            <path id="Path" fill="#0678f3" fill-rule="evenodd" stroke="#02d7ea" stroke-linecap="round" stroke-linejoin="round" d="M 202.5 52.392303 L 289.042603 102.357697 C 300.18103 108.788483 307.042603 120.67305 307.042603 133.534607 L 307.042603 233.465393 C 307.042603 246.32695 300.18103 258.211517 289.042603 264.642303 L 202.5 314.607697 C 191.361557 321.038483 177.638443 321.038483 166.5 314.607697 L 79.957405 264.642303 C 68.81897 258.211517 61.957405 246.32695 61.957405 233.465393 L 61.957405 133.534607 C 61.957405 120.67305 68.81897 108.788483 79.957405 102.357697 L 166.5 52.392303 C 177.638443 45.961517 191.361557 45.961517 202.5 52.392303 Z"/>
            <path id="path1" fill="#02d7ea" fill-rule="evenodd" stroke="#02ffd5" stroke-linecap="round" stroke-linejoin="round" d="M 203.5 96.392303 L 251.937469 124.357697 C 263.075928 130.788483 269.937469 142.67305 269.937469 155.534607 L 269.937469 211.465393 C 269.937469 224.32695 263.075928 236.211517 251.937469 242.642303 L 203.5 270.607697 C 192.361557 277.038483 178.638443 277.038483 167.5 270.607697 L 119.062523 242.642303 C 107.924088 236.211517 101.062523 224.32695 101.062523 211.465393 L 101.062523 155.534607 C 101.062523 142.67305 107.924088 130.788483 119.062523 124.357697 L 167.5 96.392303 C 178.638443 89.961517 192.361557 89.961517 203.5 96.392303 Z"/>
            <path id="path2" fill="#02ffd5" fill-rule="evenodd" stroke="#ffffff" stroke-linecap="round" stroke-linejoin="round" d="M 195.999542 134.638916 L 220.499496 148.783218 C 228.234802 153.248962 233 161.502289 233 170.434143 L 233 197.565857 C 233 206.497711 228.234802 214.751038 220.499496 219.216782 L 196.999496 232.783798 C 189.264725 237.249222 179.735275 237.249222 172.000504 232.783798 L 148.500504 219.216782 C 140.765198 214.751038 136 206.497711 136 197.565857 L 136 170.434143 C 136 161.502289 140.765198 153.248962 148.500504 148.783218 L 173.000458 134.638916 C 180.116455 130.530716 188.883545 130.530716 195.999542 134.638916 Z"/>
        </g>
        <g id="chartLines">
            <path id="Line" fill="#ffffff" fill-rule="evenodd" stroke="#121284" stroke-width="2" stroke-linecap="round" stroke-linejoin="round" d="M 184.5 6.504822 L 184.5 362"/>
            <path id="path3" fill="none" stroke="#121284" stroke-width="2" stroke-linecap="round" stroke-linejoin="round" d="M 30 97.5 L 339 271"/>
            <path id="path4" fill="#ffffff" fill-rule="evenodd" stroke="#121284" stroke-width="2" stroke-linecap="round" stroke-linejoin="round" d="M 30 271 L 339 97.5"/>
        </g>
        <g id="Legends">
            <text id="Saboteur" transform="matrix(0.866025 0.5 -0.5 0.866025 57.17795 -133.391016)" xml:space="preserve" x="308" y="46" text-anchor="end" font-family="Quicksand" font-size="14" font-weight="300" fill="#646464">Saboteur</text>
            <text id="Friend" transform="matrix(0.866025 0.5 -0.5 0.866025 178.464447 -6.038383)" xml:space="preserve" x="122" y="336" text-anchor="end" font-family="Quicksand" font-size="14" font-weight="300" fill="#646464">Friend</text>
            <text id="2nd-Influencer" transform="matrix(-0 -1 1 -0 -168.5 195.5)" xml:space="preserve" x="60" y="188" text-anchor="end" font-family="Quicksand" font-size="14" font-weight="300" fill="#646464">2nd Influencer</text>
            <text id="Key-Influencer" transform="matrix(0.865796 -0.500397 0.500397 0.865796 -6.033723 51.502475)" xml:space="preserve" x="140" y="43" text-anchor="end" font-family="Quicksand" font-size="14" font-weight="300" fill="#646464">Key Influencer</text>
            <text id="Colleague" transform="matrix(0.866025 -0.5 0.5 0.866025 -124.487113 183.407769)" xml:space="preserve" x="313" y="330" text-anchor="end" font-family="Quicksand" font-size="14" font-weight="300" fill="#646464">Colleague</text>
            <text id="Target" transform="matrix(0 1 -1 0 531.5 -181.5)" xml:space="preserve" x="378" y="181" text-anchor="end" font-family="Quicksand" font-size="14" font-weight="300" fill="#646464">Target</text>
        </g>
        <g id="Disc-Letters">
            <text id="D" xml:space="preserve" x="227" y="189" text-anchor="end" font-family="Quicksand" font-size="14" fill="#ffffff">D</text>
            <text id="C" xml:space="preserve" x="334" y="189" text-anchor="end" font-family="Quicksand" font-size="14" fill="#ffffff">C</text>
            <text id="S" xml:space="preserve" x="296" y="189" text-anchor="end" font-family="Quicksand" font-size="14" fill="#ffffff">S</text>
            <text id="i" xml:space="preserve" x="256" y="189" text-anchor="end" font-family="Quicksand" font-size="14" fill="#ffffff">i</text>
        </g>
    </g>
</svg>
